<?xml version="1.0" encoding="UTF-8"?>
<!--Generator: Apple Native CoreSVG 326-->
<!DOCTYPE svg
PUBLIC "-//W3C//DTD SVG 1.1//EN"
       "http://www.w3.org/Graphics/SVG/1.1/DTD/svg11.dtd">
<svg version="1.1" xmlns="http://www.w3.org/2000/svg" xmlns:xlink="http://www.w3.org/1999/xlink" viewBox="0 0 11.1415 10.7008">
 <g>
  <rect height="10.7008" opacity="0" width="11.1415" x="0" y="0"/>
  <path d="M10.7021 8.04155L10.6879 0.548512C10.6879 0.233204 10.4805 0.0106202 10.1523 0.0106202L2.65474 0.0106202C2.34675 0.0106202 2.13428 0.248365 2.13428 0.515919C2.13428 0.783474 2.36975 1.00203 2.63679 1.00203L5.81001 1.00203L9.18442 0.916628L7.89477 2.08777L0.155127 9.83752C0.0550783 9.93757 0 10.0652 0 10.1877C0 10.4552 0.235474 10.7008 0.513136 10.7008C0.640724 10.7008 0.758718 10.6559 0.863308 10.5485L8.61079 2.80606L9.7875 1.51363L9.69653 4.53216L9.69653 8.06177C9.69653 8.32654 9.9219 8.56934 10.1968 8.56934C10.4666 8.56934 10.7021 8.3417 10.7021 8.04155Z" fill="black" fill-opacity="0.85"/>
 </g>
</svg>
